<svg width="40" height="40" viewBox="0 0 40 40" fill="none" xmlns="http://www.w3.org/2000/svg">
<mask id="mask0_2770_5572" style="mask-type:alpha" maskUnits="userSpaceOnUse" x="0" y="0" width="40" height="40">
<rect width="40" height="40" fill="#D9D9D9"/>
</mask>
<g mask="url(#mask0_2770_5572)">
<path d="M9.44454 36.666C8.68065 36.666 8.02663 36.3941 7.48246 35.8502C6.93857 35.306 6.66663 34.652 6.66663 33.8881V16.2773C6.66663 15.5134 6.93857 14.8594 7.48246 14.3152C8.02663 13.7713 8.68065 13.4993 9.44454 13.4993H11.9445V9.72143C11.9445 7.49282 12.7302 5.5931 14.3016 4.02227C15.873 2.45143 17.7734 1.66602 20.0029 1.66602C22.2323 1.66602 24.1318 2.45143 25.7012 4.02227C27.2707 5.5931 28.0554 7.49282 28.0554 9.72143V13.4993H30.5554C31.3193 13.4993 31.9733 13.7713 32.5175 14.3152C33.0613 14.8594 33.3333 15.5134 33.3333 16.2773V33.8881C33.3333 34.652 33.0613 35.306 32.5175 35.8502C31.9733 36.3941 31.3193 36.666 30.5554 36.666H9.44454ZM9.44454 33.8881H30.5554V16.2773H9.44454V33.8881ZM20.0045 28.3327C20.8995 28.3327 21.6643 28.0199 22.2987 27.3943C22.9329 26.7688 23.25 26.0167 23.25 25.1381C23.25 24.277 22.9312 23.5109 22.2937 22.8398C21.6565 22.1684 20.8904 21.8327 19.9954 21.8327C19.1004 21.8327 18.3357 22.1684 17.7012 22.8398C17.067 23.5109 16.75 24.2817 16.75 25.1523C16.75 26.0225 17.0687 26.7702 17.7062 27.3952C18.3434 28.0202 19.1095 28.3327 20.0045 28.3327ZM14.722 13.4993H25.2779V9.72143C25.2779 8.2556 24.7651 7.00949 23.7395 5.9831C22.7137 4.95699 21.4683 4.44393 20.0033 4.44393C18.538 4.44393 17.2915 4.95699 16.2637 5.9831C15.2359 7.00949 14.722 8.2556 14.722 9.72143V13.4993Z" fill="white"/>
</g>
</svg>
