<svg width="25" height="25" viewBox="0 0 25 25" fill="none" xmlns="http://www.w3.org/2000/svg">
<path d="M3.26775 18.361C3.54928 20.8447 5.64957 22.7812 8.14756 22.8698C9.4147 22.9148 10.7158 22.938 12.1181 22.938C13.5205 22.938 14.8216 22.9148 16.0887 22.8698C18.5867 22.7812 20.687 20.8447 20.9685 18.361C21.0666 17.4954 21.1347 16.6158 21.1347 15.7249C21.1347 14.834 21.0666 13.9544 20.9685 13.0887C20.687 10.605 18.5867 8.66855 16.0887 8.5799C14.8216 8.53494 13.5205 8.51171 12.1181 8.51171C10.7158 8.51171 9.4147 8.53494 8.14756 8.5799C5.64955 8.66855 3.54928 10.605 3.26775 13.0887C3.16962 13.9544 3.10168 14.834 3.10168 15.7249C3.10168 16.6158 3.16962 17.4954 3.26775 18.361Z" fill="#FAD0B7" stroke="#F17830" stroke-width="1.73116"/>
<path d="M17.1673 8.51157V6.34762C17.1673 5.00848 16.6353 3.72419 15.6884 2.77728C14.7415 1.83037 13.4572 1.2984 12.1181 1.2984C10.7789 1.2984 9.49467 1.83037 8.54776 2.77728C7.60083 3.72419 7.06886 5.00848 7.06886 6.34762V8.51157" stroke="#F17830" stroke-width="1.73116" stroke-linecap="round" stroke-linejoin="round"/>
<path d="M12.1181 14.7149V16.4459" stroke="#F17830" stroke-width="1.73116" stroke-linecap="round" stroke-linejoin="round"/>
</svg>
