<svg width="445" height="320" viewBox="0 0 445 320" fill="none" xmlns="http://www.w3.org/2000/svg">
<g clip-path="url(#clip0_3466_8691)">
<rect width="445" height="320" fill="#F7F2EF"/>
<rect width="445" height="320" fill="url(#paint0_linear_3466_8691)"/>
<path d="M13 -73V394" stroke="black" stroke-opacity="0.2" stroke-dasharray="8 8"/>
<path d="M55 -73V394" stroke="black" stroke-opacity="0.2" stroke-dasharray="8 8"/>
<path d="M97 -73V394" stroke="black" stroke-opacity="0.2" stroke-dasharray="8 8"/>
<path d="M139 -73V394" stroke="black" stroke-opacity="0.2" stroke-dasharray="8 8"/>
<path d="M181 -73V394" stroke="black" stroke-opacity="0.2" stroke-dasharray="8 8"/>
<path d="M223 -73V394" stroke="black" stroke-opacity="0.2" stroke-dasharray="8 8"/>
<path d="M265 -73V394" stroke="black" stroke-opacity="0.2" stroke-dasharray="8 8"/>
<path d="M307 -73V394" stroke="black" stroke-opacity="0.2" stroke-dasharray="8 8"/>
<path d="M349 -73V394" stroke="black" stroke-opacity="0.2" stroke-dasharray="8 8"/>
<path d="M391 -73V394" stroke="black" stroke-opacity="0.2" stroke-dasharray="8 8"/>
<path d="M433 -73V394" stroke="black" stroke-opacity="0.2" stroke-dasharray="8 8"/>
<path d="M456 28L-11 28" stroke="black" stroke-opacity="0.2" stroke-dasharray="8 8"/>
<path d="M456 161L-11 161" stroke="black" stroke-opacity="0.2" stroke-dasharray="8 8"/>
<path d="M456 294L-11 294" stroke="black" stroke-opacity="0.2" stroke-dasharray="8 8"/>
<g style="mix-blend-mode:multiply" opacity="0.5">
<path d="M72.8766 147.388L40.3563 298.033C40.0063 299.655 37.9484 300.17 36.8758 298.905L-15.4745 237.158C-16.6787 235.738 -19 236.59 -19 238.452V415C-19 416.105 -18.1046 417 -17 417H462.5C463.605 417 464.5 416.105 464.5 415V129.375C464.5 128.817 464.267 128.285 463.857 127.906L419.809 87.2091C419.063 86.5199 417.919 86.4992 417.148 87.1608L378.603 120.265C377.441 121.263 375.633 120.637 375.337 119.133L335.251 -84.5638C334.817 -86.7695 331.635 -86.692 331.309 -84.4677L291.723 185.565C291.462 187.35 289.157 187.904 288.114 186.433L247.239 128.836C247.081 128.614 246.88 128.427 246.648 128.286L203.475 102.007C202.28 101.279 200.726 101.973 200.469 103.349L161.55 312.184C161.163 314.258 158.245 314.398 157.662 312.371L118.201 175.199C118.071 174.747 117.787 174.356 117.397 174.093L75.9496 146.151C74.7763 145.36 73.1752 146.005 72.8766 147.388Z" fill="url(#paint1_linear_3466_8691)" stroke="#9DAC67" stroke-width="3" stroke-linecap="round"/>
<circle cx="72.5" cy="147.5" r="6.5" fill="#9DAC67" stroke="white" stroke-width="3"/>
<circle cx="116.5" cy="174.5" r="6.5" fill="#9DAC67" stroke="white" stroke-width="3"/>
<circle cx="202.5" cy="100.5" r="6.5" fill="#9DAC67" stroke="white" stroke-width="3"/>
<circle cx="159.5" cy="315.5" r="6.5" fill="#9DAC67" stroke="white" stroke-width="3"/>
<circle cx="37.5" cy="299.5" r="6.5" fill="#9DAC67" stroke="white" stroke-width="3"/>
<circle cx="246.5" cy="127.5" r="6.5" fill="#9DAC67" stroke="white" stroke-width="3"/>
<circle cx="289.5" cy="187.5" r="6.5" fill="#9DAC67" stroke="white" stroke-width="3"/>
<circle cx="375.5" cy="120.5" r="6.5" fill="#9DAC67" stroke="white" stroke-width="3"/>
<circle cx="418.5" cy="86.5" r="6.5" fill="#9DAC67" stroke="white" stroke-width="3"/>
</g>
</g>
<defs>
<linearGradient id="paint0_linear_3466_8691" x1="222.5" y1="0" x2="222.5" y2="215" gradientUnits="userSpaceOnUse">
<stop stop-color="#FFF2EA" stop-opacity="0"/>
<stop offset="1" stop-color="#FFF2EA"/>
</linearGradient>
<linearGradient id="paint1_linear_3466_8691" x1="222.75" y1="-96" x2="222.75" y2="357" gradientUnits="userSpaceOnUse">
<stop stop-color="#E3E7D0"/>
<stop offset="1" stop-color="#E3E7D0" stop-opacity="0"/>
</linearGradient>
<clipPath id="clip0_3466_8691">
<rect width="445" height="320" fill="white"/>
</clipPath>
</defs>
</svg>
