<svg width="20" height="20" viewBox="0 0 20 20" fill="none" xmlns="http://www.w3.org/2000/svg">
<path d="M10 0C10.9989 0 11.8259 1.11023 11.9902 2.56934C12.8621 1.38759 14.1348 0.840418 15 1.33984C15.8652 1.83935 16.0268 3.21463 15.4395 4.56055C16.7853 3.97313 18.1606 4.13491 18.6602 5C19.1596 5.86514 18.6122 7.13687 17.4307 8.00879C18.8899 8.17307 20 9.00099 20 10C20 10.999 18.8899 11.8259 17.4307 11.9902C18.6126 12.8622 19.1597 14.1347 18.6602 15C18.1606 15.8652 16.7854 16.0269 15.4395 15.4395C16.0269 16.7854 15.8652 18.1606 15 18.6602C14.1347 19.1597 12.8622 18.6126 11.9902 17.4307C11.8259 18.8898 10.999 20 10 20C9.00107 19.9999 8.17308 18.8898 8.00879 17.4307C7.13688 18.6122 5.86513 19.1596 5 18.6602C4.13499 18.1605 3.97316 16.7853 4.56055 15.4395C3.21461 16.0268 1.83936 15.8652 1.33984 15C0.840347 14.1348 1.38754 12.8621 2.56934 11.9902C1.11023 11.8259 -3.68735e-08 10.9989 0 10C0.000116724 9.0011 1.11024 8.17312 2.56934 8.00879C1.38795 7.13689 0.840412 5.86509 1.33984 5C1.8392 4.1351 3.21406 3.97287 4.55957 4.55957C3.97286 3.21413 4.13525 1.8393 5 1.33984C5.86495 0.840463 7.13689 1.38736 8.00879 2.56836C8.17338 1.10973 9.00132 0.00011282 10 0Z" fill="white"/>
<circle cx="10.0003" cy="9.99952" r="4.31007" fill="#F8901F"/>
</svg>
