<svg width="84" height="84" viewBox="0 0 84 84" fill="none" xmlns="http://www.w3.org/2000/svg">
<path d="M56.2236 41.9333C64.1504 41.9333 70.5763 35.5073 70.5763 27.5805C70.5763 19.6537 64.1504 13.2278 56.2236 13.2278C48.2968 13.2278 41.8708 19.6537 41.8708 27.5805C41.8708 35.5073 48.2968 41.9333 56.2236 41.9333Z" fill="#E8F9FF"/>
<path d="M56.2236 41.9347C64.1505 41.9347 70.5764 35.5087 70.5764 27.5819C70.5764 21.45 66.731 16.2163 61.3205 14.1604" stroke="#0E1D61" stroke-width="5.98313" stroke-linecap="round" stroke-linejoin="round"/>
<path d="M75.8276 62.0962C82.8482 66.772 78.1078 75.7903 69.6722 75.7903H37.9954C29.5601 75.7903 24.8193 66.772 31.84 62.0962C38.1374 57.9019 45.7001 55.4575 53.8339 55.4575C61.9677 55.4575 69.5304 57.9019 75.8276 62.0962Z" fill="#E8F9FF"/>
<path d="M32.0724 39.0894C40.665 39.0894 47.6307 32.1237 47.6307 23.5312C47.6307 14.9386 40.665 7.9729 32.0724 7.9729C23.4798 7.9729 16.5142 14.9386 16.5142 23.5312C16.5142 32.1237 23.4798 39.0894 32.0724 39.0894Z" fill="#E8F9FF" stroke="#0E1D61" stroke-width="5.98313" stroke-linecap="round" stroke-linejoin="round"/>
<path d="M55.9035 60.9474C63.5139 66.0163 58.3749 75.7922 49.2311 75.7922H14.8935C5.74979 75.7922 0.610908 66.0163 8.22122 60.9474C15.0475 56.4011 23.2455 53.7515 32.0624 53.7515C40.8792 53.7515 49.0772 56.4011 55.9035 60.9474Z" fill="#E8F9FF" stroke="#0E1D61" stroke-width="5.98313"/>
<path d="M47.9084 75.792H69.6723C78.1079 75.792 82.8484 66.7736 75.8277 62.0972C73.8892 60.8061 71.8304 59.6809 69.6723 58.7417" stroke="#0E1D61" stroke-width="5.98313" stroke-linecap="round"/>
</svg>
