<svg width="84" height="84" viewBox="0 0 84 84" fill="none" xmlns="http://www.w3.org/2000/svg">
<path d="M56.2238 41.9333C64.1506 41.9333 70.5765 35.5073 70.5765 27.5805C70.5765 19.6537 64.1506 13.2278 56.2238 13.2278C48.297 13.2278 41.8711 19.6537 41.8711 27.5805C41.8711 35.5073 48.297 41.9333 56.2238 41.9333Z" fill="#FFF9D6"/>
<path d="M56.2236 41.9347C64.1505 41.9347 70.5764 35.5087 70.5764 27.5819C70.5764 21.45 66.731 16.2163 61.3205 14.1604" stroke="#F73359" stroke-width="5.98313" stroke-linecap="round" stroke-linejoin="round"/>
<path d="M75.8275 62.0962C82.8481 66.772 78.1077 75.7903 69.6721 75.7903H37.9953C29.5599 75.7903 24.8192 66.772 31.8399 62.0962C38.1372 57.9019 45.7 55.4575 53.8338 55.4575C61.9676 55.4575 69.5303 57.9019 75.8275 62.0962Z" fill="#FFF9D6"/>
<path d="M32.0724 39.0894C40.665 39.0894 47.6307 32.1237 47.6307 23.5312C47.6307 14.9386 40.665 7.9729 32.0724 7.9729C23.4798 7.9729 16.5142 14.9386 16.5142 23.5312C16.5142 32.1237 23.4798 39.0894 32.0724 39.0894Z" fill="#FFF9D6" stroke="#F73359" stroke-width="5.98313" stroke-linecap="round" stroke-linejoin="round"/>
<path d="M55.9034 60.9474C63.5137 66.0163 58.3748 75.7922 49.231 75.7922H14.8934C5.74966 75.7922 0.610786 66.0163 8.2211 60.9474C15.0474 56.4011 23.2454 53.7515 32.0622 53.7515C40.8791 53.7515 49.0771 56.4011 55.9034 60.9474Z" fill="#FFF9D6" stroke="#F73359" stroke-width="5.98313"/>
<path d="M47.9082 75.792H69.6721C78.1077 75.792 82.8481 66.7736 75.8275 62.0972C73.889 60.8061 71.8302 59.6809 69.6721 58.7417" stroke="#F73359" stroke-width="5.98313" stroke-linecap="round"/>
</svg>
