<svg width="40" height="40" viewBox="0 0 40 40" fill="none" xmlns="http://www.w3.org/2000/svg">
<path d="M28.5908 2.69312C29.6502 2.80725 30.7003 2.92961 31.74 3.0501C34.4814 3.36781 36.6688 5.55381 36.9768 8.29632C37.0928 9.32929 37.2097 10.3725 37.3183 11.4252" stroke="#F17830" stroke-width="1.73116" stroke-linecap="round"/>
<path d="M28.5908 37.3067C29.6502 37.1925 30.7003 37.0702 31.74 36.9496C34.4814 36.6319 36.6688 34.4459 36.9768 31.7033C37.0928 30.6705 37.2097 29.6273 37.3183 28.5745" stroke="#F17830" stroke-width="1.73116" stroke-linecap="round"/>
<path d="M11.4092 2.69312C10.3496 2.80725 9.29962 2.92961 8.25994 3.0501C5.51854 3.36781 3.33114 5.55381 3.02322 8.29632C2.90725 9.32929 2.79033 10.3725 2.68164 11.4252" stroke="#F17830" stroke-width="1.73116" stroke-linecap="round"/>
<path d="M11.4092 37.3067C10.3496 37.1925 9.29962 37.0702 8.25994 36.9496C5.51854 36.6319 3.33114 34.4459 3.02322 31.7033C2.90725 30.6705 2.79033 29.6273 2.68164 28.5745" stroke="#F17830" stroke-width="1.73116" stroke-linecap="round"/>
<path d="M20.9248 8.29102C21.3164 8.29102 21.6338 8.60838 21.6338 9V11.0088C22.6308 11.2237 23.5033 11.6038 24.2295 12.1709C25.075 12.8312 25.7031 13.6464 26.0996 14.6113C26.1721 14.7878 26.1701 14.9859 26.0947 15.1611C26.0193 15.3364 25.8763 15.4744 25.6982 15.543L23.127 16.5332C22.7695 16.6709 22.3664 16.4995 22.2178 16.1465C21.9848 15.5934 21.6748 15.2202 21.3047 14.9805C20.9504 14.7511 20.4065 14.5996 19.6045 14.5996C18.6628 14.5996 18.0634 14.7878 17.7031 15.0596C17.3241 15.3458 17.1846 15.6472 17.1846 15.9951C17.1846 16.3716 17.3491 16.6951 17.8672 16.9873C18.3977 17.2864 19.325 17.6257 20.6934 17.9951L21.3076 18.1553L21.3105 18.1562C22.9963 18.5914 24.3462 19.3003 25.2891 20.3291C26.2268 21.3524 26.709 22.5587 26.709 23.9189C26.709 25.5568 26.1546 26.8959 24.9775 27.8193C24.0362 28.5578 22.9152 29.0423 21.6338 29.2891V31.2861C21.6336 31.6776 21.3163 31.9951 20.9248 31.9951H18.1445C17.7531 31.9951 17.4358 31.6776 17.4355 31.2861V29.1836C16.3436 28.8929 15.3695 28.4216 14.5254 27.7578C13.5038 26.9544 12.7785 25.8358 12.3262 24.4482C12.2075 24.0842 12.3988 23.6917 12.7588 23.5615L15.3311 22.6328C15.5088 22.5686 15.7052 22.5782 15.876 22.6592C16.0468 22.7403 16.1786 22.8869 16.2412 23.0654C16.553 23.9538 16.9969 24.5788 17.5459 24.9932C18.074 25.3917 18.8083 25.624 19.8125 25.624C20.6683 25.624 21.3449 25.4523 21.874 25.1465C22.3006 24.8998 22.5098 24.5489 22.5098 23.9805C22.5097 23.4479 22.3333 23.0836 22.002 22.8086C21.8333 22.6687 21.4927 22.4761 20.9189 22.2432C20.3603 22.0164 19.6291 21.7697 18.7178 21.5059C16.6978 20.9411 15.1747 20.2351 14.2959 19.3184C13.4224 18.4068 12.9863 17.2842 12.9863 15.9951C12.9864 14.4573 13.5574 13.1967 14.7246 12.3057C15.5885 11.6463 16.4932 11.2014 17.4355 10.9961V9C17.4355 8.60838 17.7529 8.29102 18.1445 8.29102H20.9248Z" fill="#FAD0B7" stroke="#F17830" stroke-width="1.41818" stroke-linejoin="round"/>
</svg>
