<svg width="40" height="40" viewBox="0 0 40 40" fill="none" xmlns="http://www.w3.org/2000/svg">
<path d="M2.68622 26.0815C2.96078 28.8261 5.13935 31.0529 7.87735 31.3872C9.93495 31.6383 12.048 31.8549 14.2026 31.8549C16.3571 31.8549 18.4702 31.6383 20.5278 31.3872C23.2658 31.0529 25.4444 28.8261 25.7189 26.0815C25.9563 23.7088 26.1668 21.267 26.1668 18.7742C26.1668 16.2814 25.9563 13.8396 25.7189 11.4669C25.4444 8.72226 23.2658 6.49557 20.5278 6.16135C18.4702 5.91015 16.3571 5.6936 14.2026 5.6936C12.048 5.6936 9.93495 5.91015 7.87735 6.16135C5.13935 6.49557 2.96078 8.72226 2.68622 11.4669C2.44887 13.8396 2.23828 16.2814 2.23828 18.7742C2.23828 21.267 2.44887 23.7088 2.68622 26.0815Z" fill="#FAD0B7"/>
<path d="M25.5049 10.3802C24.842 8.15206 22.8937 6.45017 20.5278 6.16135C18.4702 5.91015 16.3571 5.6936 14.2026 5.6936C12.048 5.6936 9.93495 5.91015 7.87735 6.16135C5.13935 6.49557 2.96078 8.72226 2.68622 11.4669C2.44887 13.8396 2.23828 16.2814 2.23828 18.7742C2.23828 21.267 2.44887 23.7088 2.68622 26.0815C2.96078 28.8261 5.13935 31.0529 7.87735 31.3872C8.8753 31.5089 9.88627 31.6226 10.9087 31.7075" stroke="#F17830" stroke-width="1.73116" stroke-linecap="round"/>
<path d="M7.9082 5.98403C7.9082 8.0062 9.83263 9.52628 11.8517 9.63848C12.623 9.68131 13.4075 9.71171 14.2028 9.71171C14.9981 9.71171 15.7827 9.68131 16.554 9.63848C18.5731 9.52628 20.4975 8.0062 20.4975 5.98403C20.4975 3.96186 18.5731 2.44176 16.554 2.32958C15.7827 2.28672 14.9982 2.25635 14.2028 2.25635C13.4075 2.25635 12.623 2.28672 11.8517 2.32958C9.83263 2.44176 7.9082 3.96186 7.9082 5.98403Z" fill="white" stroke="#F17830" stroke-width="1.73116"/>
<path d="M18.2419 32.2122C18.502 34.9582 20.6923 37.2048 23.433 37.5162C24.88 37.6808 26.3583 37.808 27.8609 37.808C29.3636 37.808 30.8419 37.6808 32.2888 37.5162C35.0296 37.2048 37.2199 34.9582 37.4799 32.2122C37.6419 30.5034 37.7716 28.7537 37.7716 26.9724C37.7716 25.1912 37.6419 23.4414 37.4799 21.7327C37.2199 18.9866 35.0296 16.7398 32.2888 16.4285C30.8419 16.2641 29.3636 16.137 27.8609 16.137C26.3583 16.137 24.88 16.2641 23.433 16.4285C20.6923 16.7398 18.502 18.9866 18.2419 21.7327C18.08 23.4414 17.9502 25.1912 17.9502 26.9724C17.9502 28.7537 18.08 30.5034 18.2419 32.2122Z" fill="white" stroke="#F17830" stroke-width="1.73116"/>
<path d="M30.857 23.8994H24.8652" stroke="#F17830" stroke-width="1.73116" stroke-linecap="round"/>
<path d="M30.857 30.6455H24.8652" stroke="#F17830" stroke-width="1.73116" stroke-linecap="round"/>
</svg>
