<svg width="25" height="25" viewBox="0 0 25 25" fill="none" xmlns="http://www.w3.org/2000/svg">
<path d="M4.47174 4.4718L5.10992 5.10999" stroke="#F17830" stroke-width="1.73288" stroke-linecap="round" stroke-linejoin="round"/>
<path d="M12.1301 1.29966V2.20219" stroke="#F17830" stroke-width="1.73288" stroke-linecap="round" stroke-linejoin="round"/>
<path d="M22.9606 12.1301H22.0582" stroke="#F17830" stroke-width="1.73288" stroke-linecap="round" stroke-linejoin="round"/>
<path d="M2.20217 12.1301H1.29962" stroke="#F17830" stroke-width="1.73288" stroke-linecap="round" stroke-linejoin="round"/>
<path d="M19.7884 4.4718L19.1502 5.10999" stroke="#F17830" stroke-width="1.73288" stroke-linecap="round" stroke-linejoin="round"/>
<path d="M17.1481 9.57882C17.6673 10.4745 17.9375 11.493 17.9304 12.5283C17.9259 13.6024 17.6219 14.6539 17.0527 15.5647C16.8626 15.8689 16.6845 16.1355 16.5207 16.3807C15.9306 17.2643 15.5258 17.8703 15.4127 18.9533H8.84898C8.73797 17.8349 8.32742 17.2273 7.68748 16.2802C7.55802 16.0886 7.41916 15.8831 7.27151 15.6567C6.70593 14.7895 6.3828 13.7866 6.33567 12.7523C6.28853 11.718 6.51913 10.6899 7.00348 9.77479C7.48784 8.85969 8.2083 8.0909 9.09009 7.54827C9.9719 7.00562 10.9829 6.7089 12.0181 6.6889C13.0532 6.66891 14.0749 6.92636 14.977 7.43454C15.8791 7.94273 16.6287 8.68311 17.1481 9.57882Z" fill="#FAD0B7" stroke="#F17830" stroke-width="1.73288" stroke-linecap="round" stroke-linejoin="round"/>
<path d="M14.1337 22.9606H10.1265" stroke="#F17830" stroke-width="1.73288" stroke-linecap="round" stroke-linejoin="round"/>
</svg>
