<svg width="62" height="62" viewBox="0 0 62 62" fill="none" xmlns="http://www.w3.org/2000/svg">
<path d="M30.6667 61.3333C16.8742 61.3333 9.97803 61.3333 5.45047 57.3628C4.9254 56.9023 4.43104 56.4079 3.97057 55.8829C2.24481e-06 51.3553 1.94337e-06 44.4591 1.34048e-06 30.6667C7.37596e-07 16.8742 4.36153e-07 9.97803 3.97057 5.45046C4.43104 4.9254 4.9254 4.43104 5.45046 3.97057C9.97802 2.24481e-06 16.8742 1.94337e-06 30.6667 1.34048e-06C44.4591 7.37597e-07 51.3553 4.36153e-07 55.8829 3.97057C56.4079 4.43104 56.9023 4.9254 57.3628 5.45046C61.3333 9.97802 61.3333 16.8742 61.3333 30.6667C61.3333 44.4591 61.3333 51.3553 57.3628 55.8829C56.9023 56.4079 56.4079 56.9023 55.8829 57.3628C51.3553 61.3333 44.4591 61.3333 30.6667 61.3333Z" fill="white"/>
<path d="M31.5 27.1875L31.5 37.3333L29.8333 37.3333L29.8333 27.1875L25.1667 31.8542L24 30.6667L30.6667 24L37.3333 30.6667L36.1667 31.8542L31.5 27.1875Z" fill="#131415"/>
</svg>
