<svg width="25" height="25" viewBox="0 0 25 25" fill="none" xmlns="http://www.w3.org/2000/svg">
<path d="M22.9544 6.09809C22.9544 7.72032 22.4277 9.27611 21.4902 10.4232C20.7505 11.3283 19.8029 11.9204 18.7849 12.13L5.46443 12.1265C4.45269 11.9139 3.51146 11.3233 2.77587 10.4232C1.83844 9.27611 1.3118 7.72032 1.3118 6.09809L1.31177 3.50407C1.31176 3.18469 1.5216 2.90323 1.8277 2.81207C8.55195 0.809272 15.7141 0.809277 22.4383 2.81208C22.7445 2.90325 22.9544 3.18469 22.9544 3.50407V6.09809Z" stroke="#F17830" stroke-width="1.73288" stroke-linecap="round" stroke-linejoin="round"/>
<path d="M12.1237 17.7146V22.9605" stroke="#F17830" stroke-width="1.73288" stroke-linecap="round" stroke-linejoin="round"/>
<path d="M7.95813 22.9606H16.2893" stroke="#F17830" stroke-width="1.73288" stroke-linecap="round" stroke-linejoin="round"/>
<path d="M6.10254 11.4292C6.20751 14.7409 8.81957 17.7015 12.133 17.7015C15.5047 17.7015 18.0443 14.7931 18.1604 11.4234C18.1823 10.789 18.194 10.148 18.194 9.50057C18.194 6.87488 18.0189 4.20062 17.7322 1.82876C15.9315 1.42674 14.0796 1.29961 12.133 1.29961C10.1863 1.29961 8.29705 1.4113 6.53364 1.82876C6.23153 4.19063 6.0719 6.87488 6.0719 9.50057C6.0719 10.1503 6.08237 10.7931 6.10254 11.4292Z" fill="#FAD0B7" stroke="#F17830" stroke-width="1.73288"/>
</svg>
